<?xml version="1.0" encoding="UTF-8" standalone="no"?>
<!-- Created with Inkscape (http://www.inkscape.org/) -->

<svg
   version="1.1"
   id="svg948"
   width="75.117882"
   height="157.63525"
   viewBox="0 0 75.117881 157.63525"
   xmlns="http://www.w3.org/2000/svg"
   xmlns:svg="http://www.w3.org/2000/svg">
  <defs
     id="defs952" />
  <path
     style="fill:#ff0000;fill-opacity:1;stroke:none;stroke-width:1px;stroke-linecap:butt;stroke-linejoin:miter;stroke-opacity:1"
     d="m 19.379192,21.610158 5.582315,-13.3245199 8.589557,-6.16923 4.171639,-1.57581004 9.156658,4.67175004 7.114716,12.0591599 3.650774,14.56912 v 14.23604 l -1.752596,7.18257 8.514407,4.89452 5.079379,6.491 2.819466,8.45273 2.001367,10.52676 -0.358566,9.2463 -1.000212,12.011982 -3.964992,11.68078 -4.231086,4.71421 -7.055269,6.33342 -9.085888,-1.55788 -8.241778,-8.58313 2.048012,11.563 3.618691,13.82275 4.575174,12.55161 -27.263602,1.18798 5.730116,-12.76203 3.608312,-12.31015 1.714515,-15.68069 -5.389822,8.95379 -6.783514,3.07612 -6.515532,-1.48805 -7.8233574,-7.51857 -4.9652032,-10.71077 -1.8419,-11.249552 v -9.93135 l 2.0570399,-12.9669 3.1657655,-9.8134 7.7016332,-8.03001 5.878605,-2.01269 -1.534288,-11.93649 -0.160411,-9.42841 z"
     id="path8622" />
  <path
     style="fill:none;fill-opacity:1;stroke:#000000;stroke-width:1.09;stroke-miterlimit:4;stroke-dasharray:none;stroke-opacity:1"
     d="m 23.347358,156.59527 c 0.0017,-0.27224 0.813328,-2.25724 1.80357,-4.4111 3.159077,-6.87125 5.769934,-15.07332 7.703125,-24.19956 0.902228,-4.25925 1.826407,-9.68885 1.69185,-9.93969 -0.04545,-0.0847 -0.744304,0.83731 -1.553008,2.04897 -1.852778,2.77597 -5.149822,5.78107 -7.630646,6.95496 -2.72639,1.29008 -7.081333,1.27547 -9.665263,-0.0324 C 8.3218586,123.28333 2.9795441,113.30885 1.1296585,99.818188 0.45586847,94.904438 0.35188557,87.246428 0.89783497,82.745128 2.2427136,71.656728 6.1830622,62.233658 11.599872,57.151948 c 1.553286,-1.4572 3.940454,-2.85189 5.879272,-3.43494 1.352895,-0.40685 1.629061,-0.61002 1.535685,-1.12977 -1.846809,-10.27975 -2.007033,-17.89288 -0.553659,-26.30752 2.410933,-13.95864 9.034892,-23.9019099 17.060712,-25.60994994 0.797652,-0.16975 2.490963,-0.1527 3.762912,0.0379 8.88556,1.33151004 16.178997,13.38222994 17.942232,29.64539994 0.70464,6.49923 0.348973,15.18153 -0.846594,20.66653 l -0.488177,2.23964 1.179787,0.27479 c 9.351817,2.17817 16.599625,16.22612 17.4188,33.76172 0.736567,15.767262 -3.578711,30.116692 -11.104813,36.926412 -3.149493,2.84971 -5.272174,3.7323 -8.921781,3.70962 -2.496699,-0.0155 -3.299929,-0.18084 -5.005455,-1.03028 -2.90541,-1.44703 -5.591422,-4.09901 -8.238595,-8.13419 l -0.851115,-1.29738 0.532104,3.27736 c 1.939448,11.94557 4.955919,22.43666 9.011092,31.34001 1.043173,2.29034 1.896677,4.35297 1.896677,4.58361 0,0.29096 -4.357341,0.41935 -14.232365,0.41935 -11.245945,0 -14.231708,-0.10387 -14.229233,-0.495 z m 27.263602,-1.18798 c -4.074719,-8.59584 -6.751736,-16.67439 -8.882359,-26.80467 -0.625748,-2.9752 -2.2402,-12.57565 -2.2402,-13.32152 0,-0.64144 0.747896,0.11424 1.621196,1.63808 2.480281,4.32788 5.348238,7.35844 8.468914,8.94906 2.514818,1.28182 7.353792,1.29449 9.842982,0.0258 3.444275,-1.7555 6.055599,-4.53025 8.602734,-9.1411 2.642625,-4.78371 4.544933,-10.78475 5.47769,-17.279982 0.57953,-4.03554 0.634607,-11.99271 0.113044,-16.33184 -0.834624,-6.94362 -2.663022,-13.15643 -5.335382,-18.12938 -3.292539,-6.12704 -6.734707,-9.12204 -12.296479,-10.69907 -0.642727,-0.18225 -0.79349,-0.37482 -0.704232,-0.89952 0.06246,-0.36719 0.402986,-2.18231 0.756716,-4.03359 1.64952,-8.63292 1.275387,-19.10412 -0.983336,-27.52167 C 52.484069,12.287098 47.94698,5.4639981 42.235709,2.5837281 c -2.521026,-1.27138 -6.729644,-1.25836 -9.332431,0.0289 -8.444887,4.17653 -14.370836,17.5077399 -14.803795,33.3031099 -0.133254,4.86143 0.267508,9.94555 1.11321,14.12233 0.871895,4.30615 0.874803,4.01448 -0.04261,4.27461 -3.946723,1.11909 -6.135591,2.44729 -8.606604,5.22244 -4.2041923,4.72167 -7.3347013,12.30477 -8.8039829,21.32608 -0.5221595,3.20604 -0.580255,4.16051 -0.5784725,9.50389 0.00161,4.86088 0.086056,6.51543 0.4647935,9.10789 1.7472649,11.960072 6.6070675,21.794002 12.6305119,25.558142 6.90272,4.31362 14.799515,1.11678 19.57702,-7.92531 1.818279,-3.44134 1.992638,-2.60461 0.872778,4.18829 -0.754589,4.57722 -2.25399,11.6949 -3.221632,15.29312 -1.429632,5.31615 -4.163432,12.79967 -6.585837,18.02811 l -0.779749,1.68298 H 37.586114 51.03332 Z"
     id="path7949" />
</svg>
