<?xml version="1.0" encoding="UTF-8" standalone="no"?>
<!-- Created with Inkscape (http://www.inkscape.org/) -->

<svg
   version="1.1"
   id="svg948"
   width="78.936508"
   height="156.24007"
   viewBox="0 0 78.936508 156.24007"
   xmlns="http://www.w3.org/2000/svg"
   xmlns:svg="http://www.w3.org/2000/svg">
  <defs
     id="defs952" />
  <path
     style="fill:#ff0000;stroke:#000000;stroke-width:0px;stroke-linecap:butt;stroke-linejoin:miter;stroke-opacity:1;fill-opacity:1"
     d="M 37.64113,1.750178 1.9191268,79.012802 38.567888,155.28907 78.936511,78.175558 39.359596,1.6397326 Z"
     id="path4263" />
  <path
     style="fill:#000000;stroke-width:2.55658"
     d="M 17.938168,118.71715 C 8.2746219,97.903795 0.20411686,80.163721 0.00371086,79.294768 -0.19668414,78.425815 7.7446969,60.229013 17.651246,38.857428 34.059528,3.4594864 35.935482,0 38.722064,0 c 2.777139,0 4.77031,3.600756 21.636695,39.087779 L 78.936511,78.175558 60.782843,116.99563 c -17.159362,36.6938 -18.34868,38.84042 -21.714134,39.19202 -3.510054,0.36671 -3.809259,-0.16385 -21.130541,-37.4705 z M 57.768909,115.70329 75.286577,78.204355 57.304294,40.128312 C 47.414037,19.186484 38.915418,2.4494654 38.418474,2.934928 37.134885,4.188876 3.5095329,76.966709 3.5095329,78.490951 c 0,2.683451 34.4810611,75.464809 35.5789891,75.098829 0.6395,-0.21317 9.04567,-17.2621 18.680387,-37.88649 z"
     id="path1323" />
</svg>
