<?xml version="1.0" encoding="UTF-8" standalone="no"?>
<!-- Created with Inkscape (http://www.inkscape.org/) -->

<svg
   version="1.1"
   id="svg948"
   width="78.932358"
   height="156.11124"
   viewBox="0 0 78.932357 156.11124"
   xmlns="http://www.w3.org/2000/svg"
   xmlns:svg="http://www.w3.org/2000/svg">
  <defs
     id="defs952" />
  <path
     style="fill:#ff0000;fill-opacity:1;stroke:none;stroke-width:1px;stroke-linecap:butt;stroke-linejoin:miter;stroke-opacity:1"
     d="m 28.710906,2.8610068 9.58133,10.1738212 1.20967,2.542121 5.62269,-8.5578065 8.38567,-5.6006726 10.35664,3.3841567 9.49792,16.7332934 3.93929,17.940968 -0.16881,20.111446 -4.76331,22.217869 -8.97148,19.936637 -13.55197,31.62305 L 39.403156,154.3167 25.240006,123.86263 11.282366,92.500459 4.2051263,74.04306 1.5135463,55.637704 2.6625063,33.970961 7.1335763,17.700054 18.008646,2.6628414 Z"
     id="path6693" />
  <path
     style="fill:none;fill-opacity:1;stroke:#000000;stroke-width:2.21097;stroke-miterlimit:4;stroke-dasharray:none;stroke-opacity:1"
     d="M 22.741036,118.89224 C 13.563536,98.701818 5.8912363,81.480131 5.3403663,79.833552 c -1.92824,-5.763527 -3.3972,-13.461155 -3.98677,-20.891375 -0.41801002,-5.268298 -0.28115,-15.097715 0.27848,-20.000515 1.47477,-12.920226 5.00493,-23.550945 10.1608397,-30.5983902 6.80698,-9.30427159 16.05092,-9.6591154 22.95833,-0.8812926 1.33763,1.699825 2.15101,2.9763428 4.23504,6.6464088 0.46278,0.814995 0.46792,0.814396 0.99278,-0.115452 4.68923,-8.3077482 8.2618,-11.7225296 13.2699,-12.6838316 6.28402,-1.20621294 11.92464,2.8172874 16.94909,12.0899266 3.79469,7.00313 6.69636,18.812228 7.41693,30.185174 0.81219,12.818997 -0.74719,26.311512 -4.23781,36.667614 -1.20722,3.581569 -33.50644,74.753941 -33.92463,74.753941 -0.16288,0 -7.68306,-16.2511 -16.71151,-36.11352 z m 32.93838,-0.63173 c 8.87092,-19.514987 16.47762,-36.42939 16.90383,-37.587543 3.43725,-9.340443 5.24089,-22.541068 4.68169,-34.264902 -0.75032,-15.730811 -4.16108,-28.148123 -10.029,-36.5116316 -3.92603,-5.595721 -8.13568,-8.0902227 -12.90886,-7.649356 -4.99308,0.4611771 -9.08404,3.8851664 -13.06718,10.9367836 -0.88316,1.563514 -1.69695,2.842755 -1.80842,2.842755 -0.11147,0 -0.9231,-1.279241 -1.80363,-2.842755 -2.78723,-4.9491107 -5.981,-8.3743384 -9.32344,-9.9990948 -2.3485,-1.1416056 -6.2403,-1.2694128 -8.63308,-0.2835099 -6.04472,2.490613 -11.1412897,9.8760597 -14.5325897,21.0591867 -4.86173002,16.032061 -4.84260002,37.061253 0.0487,53.411335 0.95116,3.179477 3.52177,9.019832 17.6261997,40.046422 9.08197,19.97827 16.55862,36.3241 16.6148,36.3241 0.0562,0 7.36015,-15.9668 16.23106,-35.48179 z"
     id="path5921" />
</svg>
