<?xml version="1.0" encoding="UTF-8" standalone="no"?>
<!-- Created with Inkscape (http://www.inkscape.org/) -->

<svg
   version="1.1"
   id="svg948"
   width="79.808372"
   height="157.0994"
   viewBox="0 0 79.808372 157.0994"
   xmlns="http://www.w3.org/2000/svg"
   xmlns:svg="http://www.w3.org/2000/svg">
  <defs
     id="defs952" />
  <path
     style="fill:#ff0000;fill-opacity:1;stroke:none;stroke-width:1.00157;stroke-linecap:butt;stroke-linejoin:miter;stroke-miterlimit:4;stroke-dasharray:none;stroke-opacity:1"
     d="m 2.4520606,30.074476 -0.01227,96.712964 3.580815,9.96845 7.5378204,8.50867 11.254156,7.20953 11.994269,3.61119 10.601081,-1.33244 15.318644,-6.0389 11.227285,-11.60873 4.404461,-13.957 L 79.084415,98.822031 78.341966,46.786892 78.052229,32.329863 74.811972,21.010283 67.908535,12.607343 57.377552,4.9918321 48.460563,2.9111042 39.444854,2.0074304 26.946467,3.4099648 16.971007,7.7881389 9.9688486,14.597528 Z"
     id="path5217" />
  <path
     style="fill:#000000;stroke-width:2.59026"
     d="M 27.80039,155.50955 C 14.611814,151.80138 3.9114276,140.36895 1.1416516,127.02703 0.17311757,122.36162 -0.17958843,104.59753 0.08514757,73.81664 L 0.48257357,27.609771 3.9155816,21.15847 C 11.130382,7.6004231 21.847594,0.95327958 37.793088,0.1466166 46.210217,-0.27919639 49.634632,0.1517776 55.54347,2.3807526 64.52732,5.7696535 72.537138,13.283164 76.701969,22.228226 l 3.106405,6.671805 v 49.675021 c 0,49.589858 -0.0052,49.686088 -3.05882,56.126328 -8.161385,17.21304 -29.489452,26.27954 -48.949164,20.80817 z m 28.163382,-5.14216 c 7.704441,-3.60368 16.392394,-12.65311 18.860649,-19.64536 1.39632,-3.95559 1.783514,-15.55668 1.783514,-53.437239 0,-47.749878 -0.03819,-48.456263 -2.91182,-53.834098 C 66.444388,9.8794588 56.186458,3.8048361 40.480649,3.7808979 27.993671,3.7618666 19.686098,7.0903948 12.599886,14.951655 3.6420726,24.88922 3.5440386,25.634252 3.9716056,80.52897 l 0.381749,49.01137 3.531145,6.00679 c 4.0624364,6.91058 11.5194054,13.2624 18.6341464,15.87251 8.097563,2.97067 21.898858,2.47747 29.445126,-1.05225 z"
     id="path5084" />
</svg>
