<?xml version="1.0" encoding="UTF-8" standalone="no"?>
<!-- Created with Inkscape (http://www.inkscape.org/) -->

<svg
   version="1.1"
   id="svg948"
   width="78.982132"
   height="159.84529"
   viewBox="0 0 78.982131 159.84529"
   xmlns="http://www.w3.org/2000/svg"
   xmlns:svg="http://www.w3.org/2000/svg">
  <defs
     id="defs952" />
  <path
     style="fill:#eb0000;fill-opacity:1;stroke:none;stroke-width:1px;stroke-linecap:butt;stroke-linejoin:miter;stroke-opacity:1"
     d="M 11.406234,51.018576 39.492708,0.82729962 70.027139,54.750356 76.867512,68.776725 78.23532,79.4543 l -0.395663,14.973158 -4.427694,17.156312 -8.147464,12.7086 -10.133788,4.02536 -5.716102,-1.84287 -6.456231,-4.98556 1.01369,7.16938 3.932614,13.83954 5.98041,16.12615 H 25.090624 l 7.214377,-17.6741 2.961137,-11.90861 0.733647,-7.63532 -10.015391,6.91072 -12.33896,-3.97198 -9.5486295,-15.45223 -2.84838,-13.42052 -0.0374,-17.257064 2.45805,-13.337794 8.0013395,-13.098929 z"
     id="path7512" />
  <path
     style="fill:none;stroke:#000000;stroke-width:2.505;stroke-miterlimit:4;stroke-dasharray:none;stroke-opacity:1"
     d="m 24.215174,158.93111 c 10e-4,-0.28141 0.87297,-2.33325 1.935828,-4.55964 3.993295,-8.36482 7.241611,-18.8736 9.340477,-30.21779 l 0.508306,-2.74734 -0.647213,0.82737 c -1.181601,1.51052 -4.104808,3.70574 -6.213349,4.66601 -2.779641,1.2659 -5.672779,1.63119 -8.347419,1.05399 -2.88336,-0.62225 -4.48694,-1.42898 -6.98197,-3.51246 C 8.5779645,120.07237 4.9918245,113.72246 2.5715445,104.54183 0.87948449,98.123503 0.40556449,94.244105 0.40251449,86.786659 0.39851449,77.887589 1.2134245,72.556345 3.7484745,64.887488 4.7955145,61.720046 6.4125845,58.683953 21.789224,31.015408 37.775872,2.2492572 38.72286,0.62263452 39.483438,0.62263452 c 0.76043,0 1.692704,1.59973158 17.35434,29.77877748 9.102909,16.378328 16.860368,30.515573 17.238793,31.4161 1.875619,4.463247 3.545944,11.305874 4.196628,17.191872 0.397946,3.599723 0.402214,12.778207 0.0074,15.759216 -1.801985,13.60297 -5.935278,23.27821 -12.45858,29.16317 -6.67875,6.0252 -15.437164,5.58611 -21.606308,-1.0832 l -1.257333,-1.35927 0.627398,3.31986 c 2.195271,11.61615 5.043912,20.7961 9.142442,29.46219 1.119665,2.36748 2.035764,4.49955 2.035764,4.73796 0,0.30076 -4.676878,0.43347 -15.27605,0.43347 -12.070615,0 -15.275328,-0.10736 -15.272678,-0.51167 z m 29.026323,-1.68229 c -0.353987,-0.75642 -1.119543,-2.36815 -1.701251,-3.58164 -3.007485,-6.27383 -6.611173,-18.13454 -8.389553,-27.6123 -0.940955,-5.01476 -1.089831,-6.31714 -0.722123,-6.31714 0.112567,0 0.881765,0.73848 1.709307,1.64106 1.72797,1.88467 4.107727,3.64759 6.408012,4.74705 1.260337,0.6024 2.36324,0.7558 5.244007,0.7294 3.272938,-0.0301 3.859,-0.14706 5.700015,-1.13863 6.400545,-3.44728 11.429656,-10.97728 14.233074,-21.31093 1.767098,-6.513659 2.173285,-9.806676 2.173285,-17.619031 0,-7.321085 -0.381037,-10.761628 -1.82055,-16.438745 -1.722673,-6.79386 -1.978622,-7.302612 -19.736083,-39.230173 L 39.492708,0.82729962 23.060194,30.29908 C 14.022324,46.508559 6.1205645,60.968151 5.5007345,62.431507 c -1.51433,3.575185 -3.01871,8.879053 -3.78048,13.328465 -0.5762,3.365478 -0.62718,4.216508 -0.63623,10.617357 -0.009,6.029259 0.0606,7.42329 0.51701,10.437922 1.07699,7.112449 3.08259,13.326789 5.95274,18.444469 2.9340895,5.23173 6.3458995,8.77828 10.2740195,10.67977 2.73808,1.32543 8.343232,1.32884 11.058042,0.007 1.672483,-0.8145 5.509816,-3.91464 7.001799,-5.65669 0.339774,-0.39674 0.688672,-0.59407 0.775304,-0.43853 0.422434,0.7584 -2.129497,12.99088 -4.14005,19.84501 -1.782966,6.07827 -3.555705,10.6724 -6.711502,17.39311 l -0.720763,1.53498 h 14.397228 14.39724 z"
     id="path7164" />
</svg>
