<?xml version="1.0" encoding="UTF-8" standalone="no"?>
<!-- Created with Inkscape (http://www.inkscape.org/) -->

<svg
   version="1.1"
   id="svg948"
   width="79.964729"
   height="155.92714"
   viewBox="0 0 79.964729 155.92714"
   xmlns="http://www.w3.org/2000/svg"
   xmlns:svg="http://www.w3.org/2000/svg">
  <defs
     id="defs952" />
  <g
     id="g954"
     transform="translate(-137.40734,-42.354017)">
    <path
       d="m 170.09297,196.78728 c -12.98444,-3.14576 -25.27644,-12.57133 -27.67986,-21.22504 -2.346,-8.44701 -1.22508,-13.73093 7.63694,-35.99973 10.43368,-26.21813 12.16121,-35.76075 8.94663,-49.420003 -1.96243,-8.338665 -3.82745,-10.538998 -12.14622,-14.329985 -4.04227,-1.842122 -7.82857,-4.244297 -8.41399,-5.338167 -3.13825,-5.863869 1.14841,-15.418602 9.49328,-21.160023 7.02184,-4.831152 14.95264,-6.960315 25.92608,-6.960315 25.92959,0 43.51624,14.208343 43.51624,35.156993 0,8.454641 -2.36183,18.939783 -8.52435,37.84301 -6.77469,20.78103 -9.47911,30.63502 -9.46298,34.4799 0.0164,3.91597 4.22027,12.04109 11.31797,21.87519 4.61601,6.39564 5.66936,8.59097 5.66936,11.81574 0,5.29488 -1.30651,7.43473 -6.00195,9.83017 -9.41437,4.80285 -28.06115,6.39185 -40.27715,3.43226 z"
       id="path1292"
       style="fill:#ff0000" />
    <path
       style="fill:#000000"
       d="m 170.09297,196.78728 c -12.98444,-3.14576 -25.27644,-12.57133 -27.67986,-21.22504 -2.346,-8.44701 -1.22508,-13.73093 7.63694,-35.99973 10.43368,-26.21813 12.16121,-35.76075 8.94663,-49.420003 -1.96243,-8.338665 -3.82745,-10.538998 -12.14622,-14.329985 -4.04227,-1.842122 -7.82857,-4.244297 -8.41399,-5.338167 -3.13825,-5.863869 1.14841,-15.418602 9.49328,-21.160023 7.02184,-4.831152 14.95264,-6.960315 25.92608,-6.960315 25.92959,0 43.51624,14.208343 43.51624,35.156993 0,8.454641 -2.36183,18.939783 -8.52435,37.84301 -6.77469,20.78103 -9.47911,30.63502 -9.46298,34.4799 0.0164,3.91597 4.22027,12.04109 11.31797,21.87519 4.61601,6.39564 5.66936,8.59097 5.66936,11.81574 0,5.29488 -1.30651,7.43473 -6.00195,9.83017 -9.41437,4.80285 -28.06115,6.39185 -40.27715,3.43226 z m 30.2791,-2.6482 c 6.0851,-1.46076 11.71174,-4.37792 12.96657,-6.72258 1.74381,-3.25835 1.18222,-5.64471 -2.63856,-11.21199 -9.65457,-14.06773 -11.22687,-16.68628 -12.76053,-21.25176 -2.11578,-6.29836 -1.49331,-9.39489 7.49032,-37.26113 11.19069,-34.712283 11.98382,-45.730867 4.14598,-57.598349 -3.28453,-4.973189 -12.3805,-10.934751 -20.30997,-13.311286 -9.33959,-2.799164 -24.3434,-2.535378 -32.36282,0.568979 -10.87294,4.208972 -19.55245,15.357408 -16.45796,21.139512 0.58068,1.085003 4.38941,3.491918 8.46384,5.348699 8.43858,3.845583 10.71946,6.655025 12.57534,15.489527 1.68516,8.02179 1.44634,20.544218 -0.53273,27.933668 -0.94396,3.5246 -4.9077,14.3246 -8.80829,24 -6.27555,15.56646 -7.14117,18.51263 -7.51913,25.59165 -0.40936,7.66718 -0.29391,8.19889 2.77508,12.78086 8.9436,13.35267 31.75333,19.59807 52.97286,14.5042 z"
       id="path1056" />
  </g>
</svg>
