<?xml version="1.0" encoding="UTF-8" standalone="no"?>
<!-- Created with Inkscape (http://www.inkscape.org/) -->

<svg
   version="1.1"
   id="svg948"
   width="79.964729"
   height="155.92714"
   viewBox="0 0 79.964729 155.92714"
   xmlns:xlink="http://www.w3.org/1999/xlink"
   xmlns="http://www.w3.org/2000/svg"
   xmlns:svg="http://www.w3.org/2000/svg">
  <defs
     id="defs952">
    <pattern
       xlink:href="#Strips1_1.5"
       id="pattern4059"
       patternTransform="matrix(0,10,-10,0,297.70729,-57.072121)" />
    <pattern
       patternUnits="userSpaceOnUse"
       width="2.5"
       height="1"
       patternTransform="translate(0,0) scale(10,10)"
       id="Strips1_1.5">
      <rect
         style="fill:black;stroke:none"
         x="0"
         y="-0.5"
         width="1"
         height="2"
         id="rect2162" />
    </pattern>
  </defs>
  <g
     id="g954"
     transform="translate(-137.40734,-42.354018)">
    <path
       d="m 170.09297,196.78728 c -12.98444,-3.14576 -25.27644,-12.57133 -27.67986,-21.22504 -2.346,-8.44701 -1.22508,-13.73093 7.63694,-35.99973 10.43368,-26.21813 12.16121,-35.76075 8.94663,-49.420001 -1.96243,-8.33867 -3.82745,-10.539 -12.14622,-14.32999 -4.04227,-1.84212 -7.82857,-4.24429 -8.41399,-5.33816 -3.13825,-5.86387 1.14841,-15.41861 9.49328,-21.16003 7.02184,-4.83115 14.95264,-6.960311 25.92608,-6.960311 25.92959,0 43.51624,14.208341 43.51624,35.156991 0,8.45464 -2.36183,18.93978 -8.52435,37.843011 -6.77469,20.78103 -9.47911,30.63502 -9.46298,34.4799 0.0164,3.91597 4.22027,12.04109 11.31797,21.87519 4.61601,6.39564 5.66936,8.59097 5.66936,11.81574 0,5.29488 -1.30651,7.43473 -6.00195,9.83017 -9.41437,4.80285 -28.06115,6.39185 -40.27715,3.43226 z"
       id="path1292"
       style="fill:url(#pattern4059);fill-opacity:1" />
    <path
       style="fill:#000000"
       d="m 170.09297,196.78728 c -12.98444,-3.14576 -25.27644,-12.57133 -27.67986,-21.22504 -2.346,-8.44701 -1.22508,-13.73093 7.63694,-35.99973 10.43368,-26.21813 12.16121,-35.76075 8.94663,-49.420001 -1.96243,-8.33867 -3.82745,-10.539 -12.14622,-14.32999 -4.04227,-1.84212 -7.82857,-4.24429 -8.41399,-5.33816 -3.13825,-5.86387 1.14841,-15.41861 9.49328,-21.16003 7.02184,-4.83115 14.95264,-6.96031 25.92608,-6.96031 25.92959,0 43.51624,14.20834 43.51624,35.15699 0,8.45464 -2.36183,18.93978 -8.52435,37.843011 -6.77469,20.78103 -9.47911,30.63502 -9.46298,34.4799 0.0164,3.91597 4.22027,12.04109 11.31797,21.87519 4.61601,6.39564 5.66936,8.59097 5.66936,11.81574 0,5.29488 -1.30651,7.43473 -6.00195,9.83017 -9.41437,4.80285 -28.06115,6.39185 -40.27715,3.43226 z m 30.2791,-2.6482 c 6.0851,-1.46076 11.71174,-4.37792 12.96657,-6.72258 1.74381,-3.25835 1.18222,-5.64471 -2.63856,-11.21199 -9.65457,-14.06773 -11.22687,-16.68628 -12.76053,-21.25176 -2.11578,-6.29836 -1.49331,-9.39489 7.49032,-37.26113 11.19069,-34.712281 11.98382,-45.730871 4.14598,-57.598351 -3.28453,-4.97319 -12.3805,-10.93475 -20.30997,-13.31128 -9.33959,-2.79917 -24.3434,-2.53538 -32.36282,0.56898 -10.87294,4.20897 -19.55245,15.3574 -16.45796,21.13951 0.58068,1.085 4.38941,3.49192 8.46384,5.3487 8.43858,3.84558 10.71946,6.65502 12.57534,15.48952 1.68516,8.02179 1.44634,20.544221 -0.53273,27.933671 -0.94396,3.5246 -4.9077,14.3246 -8.80829,24 -6.27555,15.56646 -7.14117,18.51263 -7.51913,25.59165 -0.40936,7.66718 -0.29391,8.19889 2.77508,12.78086 8.9436,13.35267 31.75333,19.59807 52.97286,14.5042 z"
       id="path1056" />
  </g>
</svg>
